<svg xmlns="http://www.w3.org/2000/svg" width="427" height="118" fill="none" viewBox="0 0 427 118"><rect width="5.869" height="11.005" fill="#9551F0" opacity=".77" transform="matrix(0.951057 -0.309017 -0.309017 -0.951057 294.614 12.2802)"/><rect width="4.094" height="7.676" fill="#9551F0" opacity=".81" transform="matrix(0.866025 0.5 0.5 -0.866025 152.988 10.4307)"/><rect width="5.228" height="9.803" fill="#FF4337" opacity=".73" transform="matrix(-0.994522 0.104528 0.104528 0.994522 111.856 17.829)"/><rect width="5.425" height="10.173" fill="#FFD337" opacity=".89" transform="matrix(-0.766044 0.642788 0.642788 0.766044 333.455 29.455)"/><rect width="3.058" height="5.734" fill="#3744FF" transform="matrix(0.241922 -0.970296 -0.970296 -0.241922 178.266 25.1393)"/><rect width="4.192" height="7.861" fill="#FFD337" opacity=".85" transform="matrix(-0.469472 0.882948 0.882948 0.469472 12.595 18.3574)"/><rect width="3.551" height="6.659" fill="#9551F0" opacity=".95" transform="matrix(-1 0 0 1 426.375 42.3141)"/><rect width="4.044" height="7.583" fill="#FFD337" opacity=".91" transform="matrix(0.515038 0.857167 0.857167 -0.515038 378.462 34.2992)"/><rect width="4.686" height="8.786" fill="#09E2AF" opacity=".95" transform="matrix(0.292372 0.956305 0.956305 -0.292372 134.492 46.0132)"/><rect width="5.08" height="9.525" fill="#9551F0" opacity=".8" transform="matrix(-0.777146 0.62932 0.62932 0.777146 3.94806 44)"/><rect width="5.425" height="10.173" fill="#09E2AF" opacity=".77" transform="matrix(-0.99863 -0.052336 -0.052336 0.99863 394.932 52.0905)"/><rect width="5.08" height="9.525" fill="#FF4337" opacity=".91" transform="matrix(0.469472 0.882948 0.882948 -0.469472 340 92.4719)"/><rect width="4.735" height="8.878" fill="#FFD337" opacity=".74" transform="matrix(-0.999391 0.0348995 0.0348995 0.999391 253.482 63.188)"/><rect width="3.354" height="6.289" fill="#9551F0" opacity=".76" transform="matrix(0.93358 -0.358368 -0.358368 -0.93358 92.1275 61.955)"/><rect width="3.65" height="6.843" fill="#9551F0" opacity=".94" transform="matrix(-0.970296 -0.241922 -0.241922 0.970296 302.012 75.4307)"/><rect width="4.291" height="8.046" fill="#09E2AF" opacity=".94" transform="matrix(-0.857167 -0.515038 -0.515038 0.857167 183.815 79.1298)"/><rect width="3.403" height="6.381" fill="#9551F0" opacity=".87" transform="matrix(0.0871557 0.996195 0.996195 -0.0871557 131.585 77.8967)"/><rect width="3.847" height="7.213" fill="#FFD337" opacity=".94" transform="matrix(0.0697565 -0.997564 -0.997564 -0.0697565 390.793 90.7559)"/><rect width="4.686" height="8.786" fill="#FF4337" opacity=".75" transform="matrix(0.97437 0.224951 0.224951 -0.97437 192.446 91.3723)"/><rect width="5.08" height="9.525" fill="#9551F0" opacity=".7" transform="matrix(0.898794 0.438371 0.438371 -0.898794 78.5638 91.3723)"/><rect width="5.13" height="9.618" fill="#09E2AF" opacity=".84" transform="matrix(-0.992546 0.121869 0.121869 0.992546 291.531 99.2992)"/><rect width="3.699" height="6.936" fill="#3744FF" opacity=".79" transform="matrix(-0.438371 0.898794 0.898794 0.438371 215.874 110.397)"/><rect width="4.192" height="7.861" fill="#FF4337" opacity=".89" transform="matrix(-0.766044 0.642788 0.642788 0.766044 13.2115 109.164)"/></svg>