<svg xmlns="http://www.w3.org/2000/svg" width="1179" height="786" fill="none" viewBox="0 0 1179 786"><g clip-path="url(#clip0)"><rect width="1179" height="786" fill="#fff"/><path fill="#0E0C4D" d="M0 0H1183V614L0 754V0Z"/><rect width="3.502" height="6.566" x="73.347" y="14.032" fill="#09E2AF" opacity=".96" transform="rotate(-41 73.3469 14.0322)"/><rect width="5.721" height="10.728" x="153.936" y="28.212" fill="#09E2AF" opacity=".7" transform="rotate(36 153.936 28.2124)"/><rect width="3.058" height="5.734" x="302.344" y="26.363" fill="#09E2AF" opacity=".94" transform="rotate(155 302.344 26.3628)"/><rect width="5.869" height="11.005" x="476.646" y="23.28" fill="#9551F0" opacity=".77" transform="rotate(-162 476.646 23.2803)"/><rect width="4.094" height="7.676" x="618.272" y="21.431" fill="#9551F0" opacity=".81" transform="rotate(150 618.272 21.4307)"/><rect width="5.228" height="9.803" x="659.404" y="28.829" fill="#FF4337" opacity=".73" transform="rotate(6 659.404 28.8291)"/><rect width="3.058" height="5.734" x="20.942" y="36.756" fill="#3744FF" opacity=".81" transform="rotate(-132 20.9417 36.7559)"/><rect width="4.538" height="8.508" x="182.297" y="36.139" fill="#3744FF" opacity=".86" transform="rotate(161 182.297 36.1392)"/><rect width="3.551" height="6.659" x="254.255" y="44.77" fill="#3744FF" opacity=".89" transform="rotate(-124 254.255 44.7705)"/><rect width="5.425" height="10.173" x="437.805" y="40.455" fill="#FFD337" opacity=".89" transform="rotate(40 437.805 40.4551)"/><rect width="3.058" height="5.734" x="592.995" y="36.139" fill="#3744FF" transform="rotate(-104 592.995 36.1392)"/><rect width="4.192" height="7.861" x="758.665" y="29.357" fill="#FFD337" opacity=".85" transform="rotate(62 758.665 29.3574)"/><rect width="3.255" height="6.104" x="223.604" y="60.096" fill="#3744FF" transform="rotate(-92 223.604 60.0957)"/><rect width="3.551" height="6.659" x="344.885" y="53.314" fill="#9551F0" opacity=".95"/><rect width="4.044" height="7.583" x="392.798" y="45.299" fill="#FFD337" opacity=".91" transform="rotate(121 392.798 45.2993)"/><rect width="4.686" height="8.786" x="636.768" y="57.013" fill="#09E2AF" opacity=".95" transform="rotate(107 636.768 57.0132)"/><rect width="5.08" height="9.525" x="676.667" y="57.013" fill="#9551F0" opacity=".8" transform="rotate(39 676.667 57.0132)"/><rect width="3.403" height="6.381" x="115.271" y="65.557" fill="#09E2AF" opacity=".88" transform="rotate(-52 115.271 65.5566)"/><rect width="3.107" height="5.826" x="243.95" y="61.857" fill="#FF4337" opacity=".77" transform="rotate(-3 243.95 61.8574)"/><rect width="5.425" height="10.173" x="376.328" y="63.09" fill="#09E2AF" opacity=".77" transform="rotate(-3 376.328 63.0903)"/><rect width="5.08" height="9.525" x="454.451" y="72.955" fill="#FF4337" opacity=".91" transform="rotate(118 454.451 72.9551)"/><rect width="4.735" height="8.878" x="517.778" y="74.188" fill="#FFD337" opacity=".74" transform="rotate(2 517.778 74.188)"/><rect width="3.354" height="6.289" x="679.133" y="72.955" fill="#9551F0" opacity=".76" transform="rotate(-159 679.133 72.9551)"/><rect width="5.278" height="9.895" x="14.776" y="87.664" fill="#FFD337" opacity=".9" transform="rotate(129 14.7764 87.6636)"/><rect width="5.08" height="9.525" x="185.996" y="78.415" fill="#FFD337" opacity=".74" transform="rotate(134 185.996 78.4155)"/><rect width="3.403" height="6.381" x="302.344" y="85.814" fill="#FFD337" transform="rotate(81 302.344 85.814)"/><rect width="3.65" height="6.843" x="469.248" y="86.431" fill="#9551F0" opacity=".94" transform="rotate(-14 469.248 86.4307)"/><rect width="4.291" height="8.046" x="587.446" y="90.13" fill="#09E2AF" opacity=".94" transform="rotate(-31 587.446 90.1299)"/><rect width="3.403" height="6.381" x="639.675" y="88.897" fill="#9551F0" opacity=".87" transform="rotate(95 639.675 88.897)"/><rect width="2.959" height="5.549" x="40.671" y="96.207" fill="#9551F0" opacity=".98" transform="rotate(149 40.6707 96.207)"/><rect width="3.009" height="5.641" x="210.657" y="103.605" fill="#3744FF" opacity=".85" transform="rotate(65 210.657 103.605)"/><rect width="4.587" height="8.601" x="293.713" y="102.989" fill="#9551F0" opacity=".86" transform="rotate(-109 293.713 102.989)"/><rect width="3.847" height="7.213" x="380.468" y="101.756" fill="#FFD337" opacity=".94" transform="rotate(-94 380.468 101.756)"/><rect width="4.686" height="8.786" x="578.814" y="102.373" fill="#FF4337" opacity=".75" transform="rotate(167 578.814 102.373)"/><rect width="5.08" height="9.525" x="692.696" y="102.373" fill="#9551F0" opacity=".7" transform="rotate(154 692.696 102.373)"/><rect width="2.959" height="5.549" x="118.97" y="120.164" fill="#FF4337" opacity=".77" transform="rotate(113 118.97 120.164)"/><rect width="4.34" height="8.138" x="159.485" y="110.916" fill="#FF4337" opacity=".81" transform="rotate(-12 159.485 110.916)"/><rect width="3.601" height="6.751" x="261.653" y="116.464" fill="#FFD337" opacity=".98" transform="rotate(-39 261.653 116.464)"/><rect width="5.13" height="9.618" x="479.729" y="110.299" fill="#09E2AF" opacity=".84" transform="rotate(7 479.729 110.299)"/><rect width="3.699" height="6.936" x="555.386" y="121.396" fill="#3744FF" opacity=".79" transform="rotate(64 555.386 121.396)"/><rect width="4.192" height="7.861" x="758.049" y="120.164" fill="#FF4337" opacity=".89" transform="rotate(40 758.049 120.164)"/><rect width="4.883" height="9.155" x="779.929" y="25.13" fill="#9551F0" opacity=".74" transform="rotate(122 779.929 25.1299)"/><rect width="3.502" height="6.566" x="891.345" y="14.032" fill="#09E2AF" opacity=".96" transform="rotate(-41 891.345 14.0322)"/><rect width="5.721" height="10.728" x="971.934" y="28.212" fill="#09E2AF" opacity=".7" transform="rotate(36 971.934 28.2124)"/><rect width="3.058" height="5.734" x="1120.34" y="26.363" fill="#09E2AF" opacity=".94" transform="rotate(155 1120.34 26.3628)"/><rect width="3.403" height="6.381" x="699.163" y="39.838" fill="#FFD337" opacity=".89" transform="rotate(-148 699.163 39.8384)"/><rect width="3.058" height="5.734" x="838.939" y="36.756" fill="#3744FF" opacity=".81" transform="rotate(-132 838.939 36.7559)"/><rect width="4.538" height="8.508" x="1000.29" y="36.139" fill="#3744FF" opacity=".86" transform="rotate(161 1000.29 36.1392)"/><rect width="3.551" height="6.659" x="1072.25" y="44.77" fill="#3744FF" opacity=".89" transform="rotate(-124 1072.25 44.7705)"/><rect width="4.39" height="8.231" x="792.259" y="50.231" fill="#3744FF" opacity=".93" transform="rotate(-128 792.259 50.2314)"/><rect width="4.587" height="8.601" x="813.662" y="53.931" fill="#FFD337" opacity=".98" transform="rotate(55 813.662 53.9307)"/><rect width="3.255" height="6.104" x="1041.6" y="60.096" fill="#3744FF" transform="rotate(-92 1041.6 60.0957)"/><rect width="3.551" height="6.659" x="1162.88" y="53.314" fill="#9551F0" opacity=".95"/><rect width="3.453" height="6.474" x="692.998" y="61.241" fill="#3744FF" opacity=".99" transform="rotate(-75 692.998 61.2407)"/><rect width="3.403" height="6.381" x="933.269" y="65.557" fill="#09E2AF" opacity=".88" transform="rotate(-52 933.269 65.5566)"/><rect width="3.107" height="5.826" x="1061.95" y="61.857" fill="#FF4337" opacity=".77" transform="rotate(-3 1061.95 61.8574)"/><rect width="3.403" height="6.381" x="797.192" y="89.513" fill="#FFD337" opacity=".99" transform="rotate(-167 797.192 89.5132)"/><rect width="5.278" height="9.895" x="832.774" y="87.664" fill="#FFD337" opacity=".9" transform="rotate(129 832.774 87.6636)"/><rect width="5.08" height="9.525" x="1003.99" y="78.415" fill="#FFD337" opacity=".74" transform="rotate(134 1003.99 78.4155)"/><rect width="3.403" height="6.381" x="1120.34" y="85.814" fill="#FFD337" transform="rotate(81 1120.34 85.814)"/><rect width="5.524" height="10.358" x="789.793" y="97.44" fill="#09E2AF" opacity=".79" transform="rotate(-56 789.793 97.4399)"/><rect width="2.959" height="5.549" x="858.668" y="96.207" fill="#9551F0" opacity=".98" transform="rotate(149 858.668 96.207)"/><rect width="3.009" height="5.641" x="1028.66" y="103.605" fill="#3744FF" opacity=".85" transform="rotate(65 1028.66 103.605)"/><rect width="4.587" height="8.601" x="1111.71" y="102.989" fill="#9551F0" opacity=".86" transform="rotate(-109 1111.71 102.989)"/><rect width="3.749" height="7.028" x="796.575" y="122.63" fill="#09E2AF" opacity=".73" transform="rotate(95 796.575 122.63)"/><rect width="2.959" height="5.549" x="936.968" y="120.164" fill="#FF4337" opacity=".77" transform="rotate(113 936.968 120.164)"/><rect width="4.34" height="8.138" x="977.483" y="110.916" fill="#FF4337" opacity=".81" transform="rotate(-12 977.483 110.916)"/><rect width="3.601" height="6.751" x="1079.65" y="116.464" fill="#FFD337" opacity=".98" transform="rotate(-39 1079.65 116.464)"/><rect width="4.883" height="9.155" fill="#9551F0" opacity=".74" transform="matrix(0.529919 0.848048 0.848048 -0.529919 699.898 78.0991)"/><rect width="3.502" height="6.566" fill="#09E2AF" opacity=".96" transform="matrix(-0.75471 -0.656059 -0.656059 0.75471 588.482 67.0015)"/><rect width="5.721" height="10.728" fill="#09E2AF" opacity=".7" transform="matrix(-0.809017 0.587785 0.587785 0.809017 507.893 81.1816)"/><rect width="3.058" height="5.734" fill="#09E2AF" opacity=".94" transform="matrix(0.906308 0.422618 0.422618 -0.906308 359.485 79.332)"/><rect width="5.869" height="11.005" fill="#9551F0" opacity=".77" transform="matrix(0.951057 -0.309017 -0.309017 -0.951057 185.183 76.2495)"/><rect width="4.094" height="7.676" fill="#9551F0" opacity=".81" transform="matrix(0.866025 0.5 0.5 -0.866025 43.5571 74.3999)"/><rect width="5.228" height="9.803" fill="#FF4337" opacity=".73" transform="matrix(-0.994522 0.104528 0.104528 0.994522 2.42554 81.7983)"/><rect width="3.403" height="6.381" fill="#FFD337" opacity=".89" transform="matrix(0.848048 -0.529919 -0.529919 -0.848048 780.664 92.8076)"/><rect width="3.058" height="5.734" fill="#3744FF" opacity=".81" transform="matrix(0.669131 -0.743145 -0.743145 -0.669131 640.888 89.7251)"/><rect width="4.538" height="8.508" fill="#3744FF" opacity=".86" transform="matrix(0.945519 0.325568 0.325568 -0.945519 479.533 89.1084)"/><rect width="3.551" height="6.659" fill="#3744FF" opacity=".89" transform="matrix(0.559193 -0.829038 -0.829038 -0.559193 407.575 97.7397)"/><rect width="5.425" height="10.173" fill="#FFD337" opacity=".89" transform="matrix(-0.766044 0.642788 0.642788 0.766044 224.024 93.4243)"/><rect width="3.058" height="5.734" fill="#3744FF" transform="matrix(0.241922 -0.970296 -0.970296 -0.241922 68.835 89.1084)"/><rect width="4.39" height="8.231" fill="#3744FF" opacity=".93" transform="matrix(0.615662 -0.788011 -0.788011 -0.615662 687.568 103.201)"/><rect width="4.587" height="8.601" fill="#FFD337" opacity=".98" transform="matrix(-0.573576 0.819152 0.819152 0.573576 666.166 106.9)"/><rect width="3.255" height="6.104" fill="#3744FF" transform="matrix(0.0348995 -0.999391 -0.999391 -0.0348995 438.225 113.065)"/><rect width="3.551" height="6.659" fill="#9551F0" opacity=".95" transform="matrix(-1 0 0 1 316.945 106.283)"/><rect width="4.044" height="7.583" fill="#FFD337" opacity=".91" transform="matrix(0.515038 0.857167 0.857167 -0.515038 269.031 98.2686)"/><rect width="4.686" height="8.786" fill="#09E2AF" opacity=".95" transform="matrix(0.292372 0.956305 0.956305 -0.292372 25.061 109.982)"/><rect width="3.453" height="6.474" fill="#3744FF" opacity=".99" transform="matrix(-0.258819 -0.965926 -0.965926 0.258819 786.829 114.21)"/><rect width="3.403" height="6.381" fill="#09E2AF" opacity=".88" transform="matrix(-0.615662 -0.788011 -0.788011 0.615662 546.558 118.526)"/><rect width="3.107" height="5.826" fill="#FF4337" opacity=".77" transform="matrix(-0.99863 -0.052336 -0.052336 0.99863 417.879 114.827)"/><rect width="5.425" height="10.173" fill="#09E2AF" opacity=".77" transform="matrix(-0.99863 -0.052336 -0.052336 0.99863 285.501 116.06)"/><rect width="5.08" height="9.525" fill="#FF4337" opacity=".91" transform="matrix(0.469472 0.882948 0.882948 -0.469472 207.378 125.924)"/><rect width="4.735" height="8.878" fill="#FFD337" opacity=".74" transform="matrix(-0.999391 0.0348995 0.0348995 0.999391 144.052 127.157)"/><rect width="3.403" height="6.381" fill="#FFD337" opacity=".99" transform="matrix(0.97437 -0.224951 -0.224951 -0.97437 682.635 142.482)"/><rect width="5.278" height="9.895" fill="#FFD337" opacity=".9" transform="matrix(0.62932 0.777146 0.777146 -0.62932 647.053 140.633)"/><rect width="5.08" height="9.525" fill="#FFD337" opacity=".74" transform="matrix(0.694658 0.71934 0.71934 -0.694658 475.833 131.385)"/><rect width="3.403" height="6.381" fill="#FFD337" transform="matrix(-0.156434 0.987688 0.987688 0.156434 359.485 138.783)"/><rect width="3.65" height="6.843" fill="#9551F0" opacity=".94" transform="matrix(-0.970296 -0.241922 -0.241922 0.970296 192.581 139.4)"/><rect width="4.291" height="8.046" fill="#09E2AF" opacity=".94" transform="matrix(-0.857167 -0.515038 -0.515038 0.857167 74.3835 143.099)"/><rect width="3.403" height="6.381" fill="#9551F0" opacity=".87" transform="matrix(0.0871557 0.996195 0.996195 -0.0871557 22.1545 141.866)"/><rect width="5.524" height="10.358" fill="#09E2AF" opacity=".79" transform="matrix(-0.559193 -0.829038 -0.829038 0.559193 690.034 150.409)"/><rect width="2.959" height="5.549" fill="#9551F0" opacity=".98" transform="matrix(0.857167 0.515038 0.515038 -0.857167 621.159 149.176)"/><rect width="3.009" height="5.641" fill="#3744FF" opacity=".85" transform="matrix(-0.422618 0.906308 0.906308 0.422618 451.172 156.575)"/><rect width="4.587" height="8.601" fill="#9551F0" opacity=".86" transform="matrix(0.325568 -0.945519 -0.945519 -0.325568 368.117 155.958)"/><rect width="3.847" height="7.213" fill="#FFD337" opacity=".94" transform="matrix(0.0697565 -0.997564 -0.997564 -0.0697565 281.362 154.725)"/><rect width="4.686" height="8.786" fill="#FF4337" opacity=".75" transform="matrix(0.97437 0.224951 0.224951 -0.97437 83.0151 155.342)"/><rect width="3.749" height="7.028" fill="#09E2AF" opacity=".73" transform="matrix(0.0871557 0.996195 0.996195 -0.0871557 683.252 175.599)"/><rect width="2.959" height="5.549" fill="#FF4337" opacity=".77" transform="matrix(0.390731 0.920505 0.920505 -0.390731 542.859 173.133)"/><rect width="4.34" height="8.138" fill="#FF4337" opacity=".81" transform="matrix(-0.978148 -0.207912 -0.207912 0.978148 502.344 163.885)"/><rect width="3.601" height="6.751" fill="#FFD337" opacity=".98" transform="matrix(-0.777146 -0.62932 -0.62932 0.777146 400.176 169.434)"/><rect width="5.13" height="9.618" fill="#09E2AF" opacity=".84" transform="matrix(-0.992546 0.121869 0.121869 0.992546 182.1 163.269)"/><rect width="3.699" height="6.936" fill="#3744FF" opacity=".79" transform="matrix(-0.438371 0.898794 0.898794 0.438371 106.443 174.366)"/><rect width="3.058" height="5.734" fill="#09E2AF" opacity=".94" transform="matrix(0.906308 0.422618 0.422618 -0.906308 1177.48 71.7651)"/><rect width="5.869" height="11.005" fill="#9551F0" opacity=".77" transform="matrix(0.951057 -0.309017 -0.309017 -0.951057 1003.18 68.6826)"/><rect width="4.094" height="7.676" fill="#9551F0" opacity=".81" transform="matrix(0.866025 0.5 0.5 -0.866025 861.555 66.833)"/><rect width="5.228" height="9.803" fill="#FF4337" opacity=".73" transform="matrix(-0.994522 0.104528 0.104528 0.994522 820.423 74.2314)"/><rect width="5.425" height="10.173" fill="#FFD337" opacity=".89" transform="matrix(-0.766044 0.642788 0.642788 0.766044 1042.02 85.8574)"/><rect width="3.058" height="5.734" fill="#3744FF" transform="matrix(0.241922 -0.970296 -0.970296 -0.241922 886.833 81.5415)"/><rect width="4.192" height="7.861" fill="#FFD337" opacity=".85" transform="matrix(-0.469472 0.882948 0.882948 0.469472 721.162 74.7598)"/><rect width="3.551" height="6.659" fill="#9551F0" opacity=".95" transform="matrix(-1 0 0 1 1134.94 98.7163)"/><rect width="4.044" height="7.583" fill="#FFD337" opacity=".91" transform="matrix(0.515038 0.857167 0.857167 -0.515038 1087.03 90.7017)"/><rect width="4.686" height="8.786" fill="#09E2AF" opacity=".95" transform="matrix(0.292372 0.956305 0.956305 -0.292372 843.059 102.416)"/><rect width="5.08" height="9.525" fill="#9551F0" opacity=".8" transform="matrix(-0.777146 0.62932 0.62932 0.777146 803.161 102.416)"/><rect width="5.425" height="10.173" fill="#09E2AF" opacity=".77" transform="matrix(-0.99863 -0.052336 -0.052336 0.99863 1103.5 108.493)"/><rect width="5.08" height="9.525" fill="#FF4337" opacity=".91" transform="matrix(0.469472 0.882948 0.882948 -0.469472 1025.38 118.357)"/><rect width="4.735" height="8.878" fill="#FFD337" opacity=".74" transform="matrix(-0.999391 0.0348995 0.0348995 0.999391 962.049 119.59)"/><rect width="3.354" height="6.289" fill="#9551F0" opacity=".76" transform="matrix(0.93358 -0.358368 -0.358368 -0.93358 800.694 118.357)"/><rect width="3.403" height="6.381" fill="#FFD337" transform="matrix(-0.156434 0.987688 0.987688 0.156434 1177.48 131.216)"/><rect width="3.65" height="6.843" fill="#9551F0" opacity=".94" transform="matrix(-0.970296 -0.241922 -0.241922 0.970296 1010.58 131.833)"/><rect width="4.291" height="8.046" fill="#09E2AF" opacity=".94" transform="matrix(-0.857167 -0.515038 -0.515038 0.857167 892.381 135.532)"/><rect width="3.403" height="6.381" fill="#9551F0" opacity=".87" transform="matrix(0.0871557 0.996195 0.996195 -0.0871557 840.152 134.299)"/><rect width="4.587" height="8.601" fill="#9551F0" opacity=".86" transform="matrix(0.325568 -0.945519 -0.945519 -0.325568 1186.11 148.391)"/><rect width="3.847" height="7.213" fill="#FFD337" opacity=".94" transform="matrix(0.0697565 -0.997564 -0.997564 -0.0697565 1099.36 147.158)"/><rect width="4.686" height="8.786" fill="#FF4337" opacity=".75" transform="matrix(0.97437 0.224951 0.224951 -0.97437 901.013 147.775)"/><rect width="5.08" height="9.525" fill="#9551F0" opacity=".7" transform="matrix(0.898794 0.438371 0.438371 -0.898794 787.131 147.775)"/><rect width="5.13" height="9.618" fill="#09E2AF" opacity=".84" transform="matrix(-0.992546 0.121869 0.121869 0.992546 1000.1 155.702)"/><rect width="3.699" height="6.936" fill="#3744FF" opacity=".79" transform="matrix(-0.438371 0.898794 0.898794 0.438371 924.441 166.799)"/><rect width="4.192" height="7.861" fill="#FF4337" opacity=".89" transform="matrix(-0.766044 0.642788 0.642788 0.766044 721.779 165.566)"/></g><defs><clipPath id="clip0"><rect width="1179" height="786" fill="#fff"/></clipPath></defs></svg>